<svg xmlns="http://www.w3.org/2000/svg" viewBox="0 0 64 64">
  <rect width="64" height="64" rx="16" fill="#193247"/>
  <path d="M15 19c3.6-3.3 8.2-5 13.8-5 5 0 9.3 1.2 12.7 3.7l-4.1 6.5c-2.6-1.5-5.4-2.3-8.5-2.3-4.3 0-6.5 1.2-6.5 3.5 0 1.8 2.1 3.1 6.3 4l4.4 1c4.6 1 8 2.6 10 4.8 1.7 1.9 2.6 4.3 2.6 7.1 0 4.5-1.7 8-5.2 10.4-3.2 2.2-7.5 3.3-12.8 3.3-6.5 0-11.8-1.8-15.8-5.5l4.8-6.5c3.1 2.6 6.8 3.9 11.2 3.9 4.8 0 7.2-1.4 7.2-4.1 0-1.3-.6-2.3-1.8-3-1.2-.7-3.4-1.4-6.4-2.1l-4.2-.9c-4.5-1-7.8-2.6-9.8-4.8-1.8-2-2.7-4.4-2.7-7.2 0-2.6.7-4.8 2-6.8z" fill="#fff"/>
  <circle cx="49" cy="15" r="7" fill="#ff7300"/>
</svg>

